<svg width="32" height="32" viewBox="0 0 32 32" fill="none" xmlns="http://www.w3.org/2000/svg">
<path d="M5.33333 26.6667V14.6667C4.6 14.6667 3.97245 14.4058 3.45067 13.884C2.92889 13.3623 2.66756 12.7343 2.66667 12V9.33337C2.66667 8.60004 2.928 7.97248 3.45067 7.45071C3.97333 6.92893 4.60089 6.6676 5.33333 6.66671H9.6C9.48889 6.46671 9.41689 6.2556 9.384 6.03337C9.35111 5.81115 9.33422 5.57782 9.33333 5.33337C9.33333 4.22226 9.72222 3.27782 10.5 2.50004C11.2778 1.72226 12.2222 1.33337 13.3333 1.33337C13.8444 1.33337 14.3222 1.42804 14.7667 1.61737C15.2111 1.80671 15.6222 2.0676 16 2.40004C16.3778 2.04449 16.7889 1.77782 17.2333 1.60004C17.6778 1.42226 18.1556 1.33337 18.6667 1.33337C19.7778 1.33337 20.7222 1.72226 21.5 2.50004C22.2778 3.27782 22.6667 4.22226 22.6667 5.33337C22.6667 5.57782 22.6444 5.80582 22.6 6.01737C22.5556 6.22893 22.4889 6.44537 22.4 6.66671H26.6667C27.4 6.66671 28.028 6.92804 28.5507 7.45071C29.0733 7.97337 29.3342 8.60093 29.3333 9.33337V12C29.3333 12.7334 29.0724 13.3614 28.5507 13.884C28.0289 14.4067 27.4009 14.6676 26.6667 14.6667V26.6667C26.6667 27.4 26.4058 28.028 25.884 28.5507C25.3622 29.0734 24.7342 29.3343 24 29.3334H8C7.26667 29.3334 6.63911 29.0725 6.11733 28.5507C5.59556 28.0289 5.33422 27.4009 5.33333 26.6667ZM18.6667 4.00004C18.2889 4.00004 17.9724 4.12804 17.7173 4.38404C17.4622 4.64004 17.3342 4.95649 17.3333 5.33337C17.3324 5.71026 17.4604 6.02715 17.7173 6.28404C17.9742 6.54093 18.2907 6.66848 18.6667 6.66671C19.0427 6.66493 19.3596 6.53693 19.6173 6.28271C19.8751 6.02848 20.0027 5.71204 20 5.33337C19.9973 4.95471 19.8693 4.63826 19.616 4.38404C19.3627 4.12982 19.0462 4.00182 18.6667 4.00004ZM12 5.33337C12 5.71115 12.128 6.02804 12.384 6.28404C12.64 6.54004 12.9564 6.6676 13.3333 6.66671C13.7102 6.66582 14.0271 6.53782 14.284 6.28271C14.5409 6.0276 14.6684 5.71115 14.6667 5.33337C14.6649 4.9556 14.5369 4.63915 14.2827 4.38404C14.0284 4.12893 13.712 4.00093 13.3333 4.00004C12.9547 3.99915 12.6382 4.12715 12.384 4.38404C12.1298 4.64093 12.0018 4.95737 12 5.33337ZM5.33333 9.33337V12H14.6667V9.33337H5.33333ZM14.6667 26.6667V14.6667H8V26.6667H14.6667ZM17.3333 26.6667H24V14.6667H17.3333V26.6667ZM26.6667 12V9.33337H17.3333V12H26.6667Z" fill="white"/>
</svg>
