<svg width="40" height="40" viewBox="0 0 40 40" fill="none" xmlns="http://www.w3.org/2000/svg">
<g clip-path="url(#clip0_59_148)">
<path d="M20.4656 17.5062C20.5062 17.6062 20.6062 17.875 20.7 17.9312C20.8125 18.0031 21.2 17.8219 21.3125 17.7625C21.6702 17.5798 21.9611 17.2889 22.1437 16.9312C22.5031 16.2219 22.0594 15.3375 21.2062 15.4343C20.2719 15.5406 20.1969 16.8312 20.4656 17.5062ZM18.0937 20.4093C18.1781 20.3375 18.4062 20.1625 18.4312 20.0562C18.4656 19.925 18.175 19.6125 18.0875 19.5219C17.8062 19.2375 17.4406 19.0406 17.0469 18.9781C16.2625 18.8469 15.55 19.5375 15.9 20.325C16.2812 21.1812 17.5344 20.8625 18.0937 20.4093ZM21.7375 21.8969C21.6312 21.8687 21.3531 21.7937 21.2562 21.8375C21.1312 21.8906 21.0562 22.3094 21.0344 22.4312C20.9781 22.8281 21.0437 23.2375 21.2312 23.5906C21.6 24.2937 22.5781 24.4469 22.9937 23.6937C23.45 22.875 22.4406 22.0656 21.7375 21.8969ZM18.4406 16.4656C18.5719 16.5875 18.7062 16.7281 18.8531 16.8375C18.9375 16.9 19.125 16.95 19.2094 16.8656C19.3375 16.7375 19.3781 16.3968 19.4156 16.2312C19.5937 15.4718 19.6906 14.6812 19.5594 13.9062L19.5531 13.8812C19.3531 12.6687 17.6687 12.3656 17.1687 13.5531L17.1344 13.6468C16.9 14.3656 17.175 15.1187 17.6562 15.6594C17.9062 15.9406 18.1656 16.2062 18.4406 16.4656ZM15.4469 18.0719C15.8156 18.1344 16.1875 18.1781 16.5594 18.2094C16.7406 18.225 16.9312 18.25 17.1156 18.2437C17.2156 18.2406 17.3969 18.1594 17.4125 18.0437C17.4312 17.8625 17.25 17.5719 17.175 17.4187C16.8406 16.7125 16.4219 16.0343 15.8375 15.5125L15.8187 15.4937C14.9031 14.675 13.4 15.4906 13.75 16.7312L13.7844 16.825C14.0437 17.5312 14.7281 17.9469 15.4469 18.0719ZM13.3281 22.1625C12.1687 22.5687 12.1625 24.2812 13.4187 24.5687L13.5187 24.5844C14.2656 24.6937 14.9594 24.2906 15.4125 23.7219C15.6437 23.4281 15.8625 23.125 16.0687 22.8125C16.1687 22.6594 16.2812 22.5062 16.3625 22.3437C16.4094 22.25 16.425 22.0562 16.3281 21.9875C16.1781 21.8812 15.8375 21.9031 15.6656 21.8937C14.8875 21.8531 14.0906 21.8937 13.3531 22.1531L13.3281 22.1625ZM20.8437 28.0437C21.3156 27.4531 21.3187 26.6531 21.0562 25.9719C20.9207 25.6236 20.7695 25.2815 20.6031 24.9469C20.5219 24.7844 20.4437 24.6094 20.3469 24.4531C20.2906 24.3687 20.1312 24.2562 20.0219 24.3031C19.8562 24.3781 19.7 24.6812 19.6062 24.8281C19.175 25.4781 18.8094 26.1875 18.6594 26.9531L18.6531 26.9812C18.4219 28.1875 19.8906 29.0562 20.775 28.1187L20.8437 28.0437ZM25.4094 23.9468L25.4312 23.9625C26.5062 24.5562 27.7906 23.4312 27.1719 22.2969L27.1187 22.2125C26.7031 21.5812 25.9437 21.3281 25.2187 21.3656C24.8437 21.3844 24.4719 21.425 24.1031 21.4812C23.925 21.5062 23.7312 21.525 23.5562 21.5718C23.4562 21.5969 23.3 21.7156 23.3125 21.8312C23.3312 22.0125 23.575 22.2531 23.6812 22.3906C24.1656 23 24.725 23.5687 25.4094 23.9468ZM23.4219 18.2437C23.5969 18.3 23.9156 18.175 24.0812 18.1312C24.8375 17.9375 25.5812 17.6531 26.2062 17.1812L26.2281 17.1656C27.2062 16.4219 26.6937 14.7906 25.4094 14.9L25.3094 14.9156C24.5656 15.0375 24.025 15.6312 23.7656 16.3125C23.6345 16.6625 23.5188 17.018 23.4187 17.3781C23.3719 17.5531 23.3094 17.7344 23.2812 17.9156C23.2656 18.0187 23.3094 18.2062 23.4219 18.2437Z" fill="#ED6C30"/>
<path d="M6.13125 27.3282L6.22813 27.3594C7.0125 27.5688 7.93125 27.1282 8.59062 26.7469C9.2 26.3938 9.8 26.0125 10.3469 25.5625C10.5594 25.3844 10.7844 25.2188 10.9594 25.0032C11.1156 24.8063 11.2281 24.425 10.9031 24.3188C10.4469 24.175 9.91875 24.25 9.45 24.2719C8.4 24.3219 7.2625 24.3625 6.29375 24.8188C5.95625 24.9782 5.66875 25.2125 5.46563 25.5657C5.09063 26.2125 5.40938 27.0719 6.13125 27.3282ZM22.4125 35.6875L22.4688 35.6032C22.8813 34.9063 22.7 33.9 22.5062 33.1625C22.325 32.4813 22.1187 31.8 21.8281 31.1563C21.7125 30.9063 21.6156 30.6438 21.4531 30.4188C21.3031 30.2157 20.9656 30.0032 20.7781 30.2875C20.5156 30.6875 20.45 31.2188 20.3469 31.675C20.1156 32.7 19.8531 33.8063 20.0312 34.8594C20.0969 35.225 20.2469 35.5688 20.5312 35.8563C21.0625 36.3969 21.975 36.3188 22.4125 35.6875ZM33.9281 27.0313C34.6375 26.7719 34.9437 25.9094 34.5531 25.2532L34.5 25.1657C34.0344 24.5 33.0469 24.2469 32.2937 24.1188C31.6 24 30.8937 23.9063 30.1875 23.9032C29.9125 23.9032 29.6312 23.8844 29.3594 23.9375C29.1125 23.9875 28.7812 24.2094 28.9625 24.4969C29.2156 24.9032 29.6719 25.1813 30.0437 25.4657C30.8812 26.1032 31.7781 26.8 32.8125 27.075C33.1719 27.1657 33.5437 27.175 33.9281 27.0313ZM28.5656 10.7C28.1656 11.2813 27.7875 11.8844 27.4875 12.5219C27.3719 12.7719 27.2375 13.0188 27.1719 13.2907C27.1156 13.5375 27.175 13.9282 27.5156 13.8875C27.9906 13.825 28.4344 13.5282 28.8469 13.3094C29.775 12.8157 30.7844 12.2907 31.4656 11.4657C31.7 11.1782 31.8625 10.8438 31.8937 10.4344C31.9562 9.68129 31.3 9.04067 30.5375 9.12192L30.4375 9.13442C29.6406 9.27817 28.9969 10.0719 28.5656 10.7ZM7.59687 16.1907C8.2875 16.3344 8.9875 16.4563 9.69375 16.4844C9.96875 16.4938 10.25 16.525 10.5219 16.4813C10.7719 16.4407 11.1125 16.2344 10.9406 15.9344C10.7031 15.5219 10.2563 15.225 9.89688 14.925C9.08125 14.2594 8.2125 13.525 7.1875 13.2188C6.83125 13.1094 6.4625 13.0875 6.075 13.2125C5.35625 13.4438 5.01562 14.2938 5.38125 14.9688L5.43437 15.0594C5.87187 15.7407 6.85 16.0344 7.59687 16.1907ZM12.7813 6.55629L12.7594 6.65629C12.625 7.45629 13.1531 8.32817 13.5969 8.95004C14.0094 9.51879 14.4469 10.0813 14.95 10.5813C15.1438 10.775 15.3344 10.9844 15.5656 11.1375C15.775 11.275 16.1688 11.35 16.2406 11.0157C16.3438 10.5469 16.2125 10.0313 16.15 9.56879C15.9969 8.52817 15.8469 7.40004 15.2969 6.48129C15.1063 6.15942 14.8469 5.89692 14.4781 5.72817C13.7875 5.40942 12.9625 5.81254 12.7813 6.55629ZM18.8406 4.46567L18.7875 4.55004C18.3281 5.31567 18.5625 6.30004 18.7156 7.11879C18.9688 8.49067 19.2938 9.84067 19.7563 11.1563C19.8281 11.3594 19.9094 11.725 20.1469 11.8C20.5094 11.9094 20.5688 11.3875 20.6344 11.1688C20.9375 10.1563 21 9.06254 21.15 8.01879C21.2812 7.11879 21.3719 6.20317 21.2188 5.29692C21.1562 4.93129 21.0063 4.58754 20.7219 4.30004C20.1938 3.75942 19.2813 3.83754 18.8406 4.46567ZM8.05938 9.68754C8.2625 10.5594 9.11563 11.1 9.79688 11.5844C10.9313 12.3938 12.1031 13.1344 13.3531 13.7563C13.5437 13.85 13.8594 14.0594 14.0813 13.9438C14.4188 13.775 14.0969 13.3563 13.9937 13.15C13.5094 12.2157 12.7906 11.3875 12.1719 10.5344C11.6375 9.79692 11.0656 9.07504 10.325 8.53442C10.025 8.31254 9.67813 8.17192 9.27188 8.16254C8.51875 8.14379 7.91562 8.83442 8.0375 9.59379L8.05938 9.68754ZM14.1062 27.1344C13.9438 26.7938 13.5188 27.1063 13.3125 27.2094C12.3656 27.675 11.5219 28.3782 10.6594 28.9782C9.9125 29.4969 9.17812 30.0532 8.62187 30.7813C8.39687 31.0782 8.24687 31.4188 8.22813 31.8282C8.19375 32.5813 8.87188 33.1969 9.63125 33.0907L9.73125 33.0719C10.6031 32.8844 11.1625 32.0438 11.6594 31.3719C12.4938 30.2532 13.2563 29.0969 13.9031 27.8594C14.0031 27.6688 14.2156 27.3563 14.1062 27.1344ZM17.1656 29.0594C16.4875 29.8657 15.9937 30.8469 15.4437 31.7438C14.9656 32.5188 14.5187 33.3219 14.3 34.2125C14.2094 34.575 14.2094 34.9469 14.3594 35.3282C14.6281 36.0344 15.4969 36.3219 16.15 35.9219L16.2344 35.8657C16.9563 35.3438 17.1312 34.3469 17.3187 33.5313C17.6312 32.1719 17.8688 30.8094 17.9688 29.4157C17.9844 29.2 18.0531 28.8313 17.8625 28.6719C17.575 28.4313 17.3125 28.8844 17.1656 29.0594ZM4.075 18.575C3.49375 19.0532 3.49063 19.9688 4.075 20.4594L4.15625 20.5219C4.88125 21.0438 5.87812 20.8938 6.7125 20.8157C8.1 20.6844 9.46875 20.475 10.8219 20.1313C11.0313 20.075 11.4031 20.025 11.4969 19.7969C11.6406 19.4469 11.1219 19.3407 10.9094 19.2563C9.93125 18.8657 8.84063 18.7094 7.81875 18.4719C6.93438 18.2625 6.02813 18.0938 5.11563 18.1657C4.74688 18.1938 4.39063 18.3125 4.075 18.575ZM23.5812 12.6063C23.825 12.65 24.0625 12.3563 24.2156 12.2094C25.2156 11.2344 26.1094 10.175 26.9469 9.05942C27.45 8.39067 28.0969 7.61879 28.0281 6.72504L28.0187 6.62504C27.9062 5.86567 27.1219 5.39067 26.4094 5.64067C26.025 5.77504 25.7375 6.01254 25.5187 6.31254C24.9781 7.05629 24.6531 7.91254 24.3687 8.77817C24.0375 9.77504 23.6031 10.7844 23.425 11.825C23.3875 12.05 23.2094 12.5438 23.5812 12.6063ZM33.7625 13.9219C32.8625 14.0875 32.0312 14.4875 31.2281 14.9188C30.3031 15.4157 29.2937 15.8469 28.4469 16.475C28.2656 16.6125 27.7938 16.8469 28.0187 17.15C28.1719 17.3469 28.5437 17.3 28.7562 17.3C30.1531 17.2844 31.5312 17.1313 32.9062 16.9C33.7281 16.7594 34.7312 16.6438 35.2969 15.9532L35.3594 15.8719C35.8 15.2438 35.5594 14.3594 34.8719 14.05C34.5 13.8782 34.1281 13.8532 33.7625 13.9219ZM27.8562 34.725C27.9562 34.3282 27.9125 33.9563 27.7812 33.6094C27.4562 32.7532 26.9156 32.0063 26.35 31.2938C25.6969 30.4719 25.0906 29.5532 24.3219 28.8344C24.1531 28.6782 23.8375 28.2563 23.5812 28.5344C23.4125 28.7157 23.525 29.075 23.5656 29.2875C23.8281 30.6563 24.225 31.9844 24.7 33.2969C24.9812 34.0813 25.275 35.05 26.0531 35.4813L26.1437 35.525C26.8438 35.8469 27.6719 35.4532 27.8562 34.725ZM32.1375 30.5969C31.5156 29.925 30.7344 29.4375 29.9375 28.9907C29.0219 28.475 28.1156 27.8594 27.1312 27.4844C26.9156 27.4032 26.4656 27.1313 26.3312 27.4875C26.2469 27.7188 26.4844 28.0063 26.6031 28.1875C27.3656 29.3594 28.2344 30.4375 29.1687 31.475C29.7281 32.0938 30.3656 32.8782 31.25 32.9844L31.35 32.9907C32.1156 33.025 32.7344 32.3469 32.6281 31.6C32.575 31.1969 32.3937 30.8688 32.1375 30.5969ZM34.9312 19.7407C34.0312 19.5719 33.1125 19.6469 32.2125 19.7594C31.1687 19.8907 30.0719 19.9313 29.0562 20.2157C28.8344 20.2782 28.3094 20.3313 28.4156 20.6938C28.4844 20.9313 28.8469 21.0219 29.05 21.0969C30.3562 21.5844 31.6969 21.9344 33.0656 22.2125C33.8812 22.3813 34.8625 22.6313 35.6375 22.1907L35.7219 22.1375C36.3594 21.7094 36.4531 20.7969 35.925 20.2594C35.6375 19.9657 35.2969 19.8125 34.9312 19.7407Z" fill="#F79329"/>
<path d="M21.3937 18.9281C20.9375 18.9281 20.5687 19.3 20.5687 19.7531C20.5687 20.2094 20.9375 20.5781 21.3937 20.5781C21.85 20.5781 22.2187 20.2094 22.2187 19.7531C22.2187 19.3 21.85 18.9281 21.3937 18.9281Z" fill="#ED6C30"/>
<path d="M18.7563 22.9657C19.2119 22.9657 19.5813 22.5963 19.5813 22.1407C19.5813 21.685 19.2119 21.3157 18.7563 21.3157C18.3006 21.3157 17.9313 21.685 17.9313 22.1407C17.9313 22.5963 18.3006 22.9657 18.7563 22.9657Z" fill="#ED6C30"/>
<path d="M28.4 36.6969C27.6125 36.6969 26.9781 37.3344 26.9781 38.1188C26.9781 38.9063 27.6156 39.5406 28.4 39.5406C28.7771 39.5406 29.1388 39.3908 29.4054 39.1242C29.6721 38.8575 29.8219 38.4959 29.8219 38.1188C29.8219 37.7417 29.6721 37.38 29.4054 37.1134C29.1388 36.8467 28.7771 36.6969 28.4 36.6969Z" fill="#FCC21B"/>
<path d="M34.725 35.6375C35.5103 35.6375 36.1469 35.0009 36.1469 34.2156C36.1469 33.4303 35.5103 32.7937 34.725 32.7937C33.9397 32.7937 33.3031 33.4303 33.3031 34.2156C33.3031 35.0009 33.9397 35.6375 34.725 35.6375Z" fill="#FCC21B"/>
<path d="M37.6906 25.7188C37.5039 25.7187 37.319 25.7555 37.1465 25.827C36.974 25.8984 36.8172 26.0032 36.6852 26.1352C36.5532 26.2672 36.4484 26.424 36.377 26.5965C36.3055 26.769 36.2688 26.9539 36.2688 27.1406C36.2688 27.3273 36.3055 27.5122 36.377 27.6848C36.4484 27.8573 36.5532 28.014 36.6852 28.146C36.8172 28.2781 36.974 28.3828 37.1465 28.4543C37.319 28.5257 37.5039 28.5625 37.6906 28.5625C38.475 28.5625 39.1125 27.925 39.1125 27.1406C39.1125 26.3531 38.475 25.7188 37.6906 25.7188Z" fill="#FCC21B"/>
<path d="M38.1687 15.3157C38.954 15.3157 39.5906 14.6791 39.5906 13.8938C39.5906 13.1085 38.954 12.4719 38.1687 12.4719C37.3835 12.4719 36.7469 13.1085 36.7469 13.8938C36.7469 14.6791 37.3835 15.3157 38.1687 15.3157Z" fill="#FCC21B"/>
<path d="M29.0906 4.34375C29.2775 4.34416 29.4625 4.30767 29.6352 4.23636C29.8079 4.16505 29.9648 4.06033 30.097 3.92821C30.2291 3.7961 30.3338 3.63919 30.4051 3.46649C30.4764 3.29379 30.5129 3.10871 30.5125 2.92188C30.5125 2.1375 29.875 1.5 29.0906 1.5C28.3031 1.5 27.6687 2.1375 27.6687 2.92188C27.6687 3.70938 28.3062 4.34375 29.0906 4.34375ZM12.1 4.35C12.8875 4.35 13.5219 3.7125 13.5219 2.92813C13.5219 2.14062 12.8844 1.50625 12.1 1.50625C11.9132 1.50584 11.7281 1.54233 11.5554 1.61364C11.3827 1.68495 11.2258 1.78967 11.0937 1.92179C10.9615 2.0539 10.8568 2.21081 10.7855 2.38351C10.7142 2.55621 10.6777 2.74129 10.6781 2.92813C10.6781 3.7125 11.3125 4.35 12.1 4.35Z" fill="#FCC21B"/>
<path d="M2.73125 14.2438C3.51653 14.2438 4.15313 13.6058 4.15313 12.8188C4.15313 12.0318 3.51653 11.3938 2.73125 11.3938C1.94597 11.3938 1.30938 12.0318 1.30938 12.8188C1.30938 13.6058 1.94597 14.2438 2.73125 14.2438Z" fill="#FCC21B"/>
<path d="M2.775 26.625C2.58801 26.625 2.40286 26.6619 2.23015 26.7335C2.05744 26.8052 1.90055 26.9102 1.76848 27.0426C1.6364 27.1749 1.53173 27.332 1.46046 27.5049C1.38919 27.6778 1.35272 27.863 1.35313 28.05C1.35313 28.8344 1.99063 29.4719 2.775 29.4719C3.55938 29.4719 4.19688 28.8344 4.19688 28.05C4.19688 27.2594 3.5625 26.625 2.775 26.625Z" fill="#FCC21B"/>
<path d="M14.2313 39.8907C15.0183 39.8907 15.6563 39.2527 15.6563 38.4656C15.6563 37.6786 15.0183 37.0406 14.2313 37.0406C13.4442 37.0406 12.8063 37.6786 12.8063 38.4656C12.8063 39.2527 13.4442 39.8907 14.2313 39.8907Z" fill="#FCC21B"/>
<path d="M38.6156 20.1312C37.9344 20.1312 37.3844 20.6812 37.3844 21.3594C37.3844 22.0406 37.9344 22.5937 38.6156 22.5937C39.2937 22.5937 39.8437 22.0406 39.8437 21.3594C39.8469 20.6812 39.2937 20.1312 38.6156 20.1312Z" fill="#FCC21B"/>
<path d="M33.8812 9.1063C34.5595 9.1063 35.1094 8.55505 35.1094 7.87505C35.1094 7.19505 34.5595 6.6438 33.8812 6.6438C33.203 6.6438 32.6531 7.19505 32.6531 7.87505C32.6531 8.55505 33.203 9.1063 33.8812 9.1063Z" fill="#FCC21B"/>
<path d="M19.6687 2.57187C20.3488 2.57187 20.9 2.02063 20.9 1.34063C20.9 0.660624 20.3488 0.109375 19.6687 0.109375C18.9887 0.109375 18.4375 0.660624 18.4375 1.34063C18.4375 2.02063 18.9887 2.57187 19.6687 2.57187Z" fill="#FCC21B"/>
<path d="M6.3375 7.98752C7.0175 7.98752 7.56875 7.43628 7.56875 6.75627C7.56875 6.07627 7.0175 5.52502 6.3375 5.52502C5.6575 5.52502 5.10625 6.07627 5.10625 6.75627C5.10625 7.43628 5.6575 7.98752 6.3375 7.98752Z" fill="#FCC21B"/>
<path d="M1.38438 20.8719C2.06438 20.8719 2.61563 20.3207 2.61563 19.6407C2.61563 18.9607 2.06438 18.4094 1.38438 18.4094C0.704375 18.4094 0.153126 18.9607 0.153126 19.6407C0.153126 20.3207 0.704375 20.8719 1.38438 20.8719Z" fill="#FCC21B"/>
<path d="M6.81875 35.8656C7.49875 35.8656 8.05 35.3143 8.05 34.6343C8.05 33.9543 7.49875 33.4031 6.81875 33.4031C6.13875 33.4031 5.5875 33.9543 5.5875 34.6343C5.5875 35.3143 6.13875 35.8656 6.81875 35.8656Z" fill="#FCC21B"/>
<path d="M21.6094 39.8812C22.2894 39.8812 22.8406 39.33 22.8406 38.65C22.8406 37.97 22.2894 37.4187 21.6094 37.4187C20.9294 37.4187 20.3781 37.97 20.3781 38.65C20.3781 39.33 20.9294 39.8812 21.6094 39.8812Z" fill="#FCC21B"/>
</g>
<defs>
<clipPath id="clip0_59_148">
<rect width="40" height="40" fill="white"/>
</clipPath>
</defs>
</svg>
