<svg width="31" height="31" viewBox="0 0 31 31" fill="none" xmlns="http://www.w3.org/2000/svg">
<path d="M15.0708 21.451L15.3183 21.6985L15.5658 21.451L29.2433 7.77347C29.5063 7.51054 29.9386 7.51054 30.2015 7.77347C30.3339 7.9059 30.4017 8.08257 30.4017 8.25257C30.4017 8.4313 30.3382 8.60101 30.2015 8.73767L15.7974 23.1418L16.0449 23.3893L15.7974 23.1418C15.5345 23.4047 15.1022 23.4047 14.8393 23.1418C14.8393 23.1418 14.8392 23.1418 14.8392 23.1418L0.634981 8.93148L0.63493 8.93142C0.372004 8.6685 0.372004 8.2362 0.63493 7.97327C0.897856 7.71035 1.33015 7.71035 1.59308 7.97327L15.0708 21.451Z" fill="#9B9B9B" stroke="#E6E6E6" stroke-width="0.7"/>
</svg>
